<svg id="SvgjsSvg1014" width="288" height="288" xmlns="http://www.w3.org/2000/svg" version="1.1" xmlns:xlink="http://www.w3.org/1999/xlink" xmlns:svgjs="http://svgjs.com/svgjs"><defs id="SvgjsDefs1015"></defs><g id="SvgjsG1016"><svg xmlns="http://www.w3.org/2000/svg" viewBox="0 0 32 32" width="288" height="288"><path fill="#f1eefd" d="M26.9,11.33A8.6,8.6,0,0,0,27,10,9,9,0,0,0,9.88,6.13,5.93,5.93,0,0,0,5,11.33,6,6,0,0,0,7,23H25a6,6,0,0,0,1.9-11.67Z" class="coloreef5fd svgShape"></path><path fill="#dcd7f2" d="M31,17a6,6,0,0,1-6,6H16V1.23A8.82,8.82,0,0,1,18,1a9,9,0,0,1,9,9,8.6,8.6,0,0,1-.1,1.33A6,6,0,0,1,31,17Z" class="colord7e2f2 svgShape"></path><path fill="#9785e0" d="M19.71,18.29l-3-3a1,1,0,0,0-.33-.21,1,1,0,0,0-.76,0,1,1,0,0,0-.33.21l-3,3a1,1,0,0,0,1.42,1.42L15,18.41V30a1,1,0,0,0,2,0V18.41l1.29,1.3a1,1,0,0,0,1.42,0A1,1,0,0,0,19.71,18.29Z" class="color91e085 svgShape"></path><path fill="#7f6fbf" d="M19.71,19.71a1,1,0,0,1-1.42,0L17,18.41V30a1,1,0,0,1-1,1V15a1,1,0,0,1,.38.08,1,1,0,0,1,.33.21l3,3A1,1,0,0,1,19.71,19.71Z" class="color84bf6f svgShape"></path></svg></g></svg>